<svg width="72" height="73" viewBox="0 0 72 73" fill="none" xmlns="http://www.w3.org/2000/svg">
<ellipse cx="34" cy="35.5846" rx="34" ry="33.4769" fill="white"/>
<ellipse cx="36" cy="54" rx="13" ry="5" fill="#FFB0CB"/>
<g clip-path="url(#clip0)">
<path d="M28.3465 18L26.5251 22.2019H23.8173V25.9808H24.8534L25.9143 32.7027H24.2571L26.4486 45.0473L27.8538 45.0304L29.2668 54H42.6441L42.7375 53.4026L44.056 45.0293L45.3925 45.0462L47.5784 32.7015H45.9955L47.0496 25.9797H48.187V22.2008H45.3104L43.4823 17.9989L28.3465 18ZM29.1385 19.2072H42.7026L43.8558 21.879H27.9764L29.1385 19.2072ZM25.0143 23.4034H46.9799V24.7849H25.0143V23.4034ZM25.6938 33.903H46.1496L44.3856 43.8289L35.9076 43.74L27.4578 43.8289L25.6938 33.903Z" fill="#3DC2EB"/>
</g>
<path fill-rule="evenodd" clip-rule="evenodd" d="M36 0.446167C55.5764 0.446167 71.4461 16.5639 71.4461 36.4462C71.4461 56.3284 55.5764 72.4462 36 72.4462C16.4236 72.4462 0.553833 56.3284 0.553833 36.4462C0.553833 29.7654 2.34566 23.5096 5.46785 18.1476C6.18062 16.9235 7.85197 16.7784 8.84579 17.7878C9.58923 18.5428 9.69901 19.7095 9.17232 20.6289C6.50963 25.2773 4.9846 30.6809 4.9846 36.4462C4.9846 53.8431 18.8707 67.9462 36 67.9462C53.1293 67.9462 67.0154 53.8431 67.0154 36.4462C67.0154 19.0492 53.1293 4.94617 36 4.94617C29.8909 4.94617 24.1943 6.74004 19.393 9.83743C18.4477 10.4473 17.1936 10.3561 16.4043 9.55451C15.4522 8.58753 15.5585 7 16.6906 6.25169C22.2459 2.57965 28.8776 0.446167 36 0.446167Z" fill="#EB5E8E"/>
<defs>
<clipPath id="clip0">
<rect width="36" height="36" fill="white" transform="translate(18 18)"/>
</clipPath>
</defs>
</svg>
