<svg width="72" height="72" viewBox="0 0 72 72" fill="none" xmlns="http://www.w3.org/2000/svg">
<ellipse cx="34" cy="35.1384" rx="34" ry="33.4769" fill="white"/>
<g clip-path="url(#clip0)">
<path d="M48.1804 23.8955C48.1804 26.0804 42.2859 27.8515 35.0147 27.8515C27.7434 27.8515 21.8489 26.0804 21.8489 23.8955C21.8489 21.7107 27.7434 19.9396 35.0147 19.9396C42.2859 19.9396 48.1804 21.7108 48.1804 23.8955Z" fill="#F4F3EF"/>
<path d="M38.4255 48.203C38.4266 48.2948 38.4254 48.3866 38.4219 48.4783C38.3982 49.0862 38.2853 49.6535 38.1131 50.1398C38.0341 50.3673 37.9392 50.5891 37.8292 50.8033C37.779 50.9022 37.7242 50.9946 37.6762 51.08C37.6218 51.1655 37.5767 51.244 37.5258 51.3149C37.4646 51.4062 37.3995 51.4947 37.3305 51.5802C39.9748 52.8393 44.9192 55.3433 44.9192 56.4633C44.9192 57.9921 40.7945 59.2315 35.7065 59.2315C30.6185 59.2315 26.4938 57.9921 26.4938 56.4633C26.4938 55.3433 31.4382 52.8393 34.0825 51.5802C34.0136 51.4947 33.9484 51.4062 33.8872 51.3149C33.8363 51.2441 33.7911 51.1655 33.7368 51.08C33.6889 50.9945 33.634 50.9021 33.5838 50.8033C33.4738 50.5891 33.3789 50.3673 33.2999 50.1398C33.1277 49.6535 33.0147 49.0862 32.9911 48.4783C32.9892 48.4334 32.9892 48.3879 32.9887 48.3425C12.8873 46.8986 21.8488 23.6757 21.8488 23.6757H21.8695C21.8562 23.7485 21.8488 23.8218 21.8488 23.8956C21.8488 26.0804 27.7434 27.8516 35.0146 27.8516C42.2859 27.8516 48.1804 26.0804 48.1804 23.8956C48.1804 23.8218 48.1731 23.7485 48.1598 23.6757H48.1804C48.1804 23.6757 56.7206 45.807 38.4255 48.203Z" fill="#E8E7E2"/>
<path d="M46.6683 25.2278C46.6683 25.2278 55.1179 47.1239 35.0146 47.1239C14.9112 47.1239 23.3608 25.2278 23.3608 25.2278H46.6683Z" fill="#3DC2EB"/>
<path d="M46.6683 25.2278C46.6683 26.955 41.4508 28.355 35.0147 28.355C28.5785 28.355 23.361 26.9549 23.361 25.2278C23.361 23.5007 28.5785 22.1006 35.0147 22.1006C41.4508 22.1006 46.6683 23.5006 46.6683 25.2278Z" fill="#B7DCE8"/>
<path d="M40.0398 32.5422C39.9773 32.5422 39.9157 32.5274 39.86 32.4992C39.8042 32.471 39.7559 32.43 39.719 32.3796C39.682 32.3292 39.6575 32.2709 39.6473 32.2092C39.6371 32.1476 39.6416 32.0844 39.6604 32.0248L45.6505 12.9993C45.6836 12.9004 45.7542 12.8185 45.8471 12.7712C45.94 12.7238 46.0477 12.7148 46.1472 12.7461C46.2466 12.7775 46.3298 12.8466 46.3788 12.9386C46.4278 13.0306 46.4387 13.1382 46.4092 13.2382L40.419 32.2637C40.3936 32.3444 40.3431 32.4149 40.2749 32.465C40.2067 32.5151 40.1244 32.5421 40.0398 32.5422Z" fill="#FFE1AB"/>
<path d="M50.7012 20.7641C50.9149 21.1906 50.7246 21.7119 50.2836 21.8939C49.1763 22.3509 46.8745 22.8862 43.3098 21.7638C39.7423 20.6406 38.1627 18.8813 37.5179 17.8726C37.2615 17.4716 37.4024 16.937 37.8201 16.7089L46.3403 12.0568H46.3404L50.7012 20.7641Z" fill="#FF5C93"/>
<path d="M46.3286 12.0631C46.3406 12.3181 46.5835 17.707 45.8586 22.3359C45.0951 22.2384 44.2464 22.0587 43.3097 21.7638C42.3614 21.4652 41.5549 21.1215 40.8677 20.7591C42.8783 16.5996 46.0821 12.3747 46.3141 12.071L46.3286 12.0631Z" fill="#D34274"/>
<path d="M46.2641 13.0263C46.1619 13.0264 46.061 13.0023 45.9698 12.9561C45.8786 12.91 45.7995 12.8429 45.739 12.7604C45.6785 12.678 45.6384 12.5824 45.6217 12.4815C45.6051 12.3806 45.6124 12.2772 45.6432 12.1797L45.709 11.9711C45.7609 11.8065 45.876 11.6692 46.0291 11.5895C46.1822 11.5098 46.3607 11.4941 46.5253 11.5459C46.6069 11.5716 46.6825 11.6131 46.748 11.668C46.8135 11.723 46.8675 11.7902 46.907 11.8661C46.9465 11.9419 46.9706 12.0247 46.9781 12.1099C46.9855 12.195 46.9761 12.2808 46.9504 12.3623L46.8847 12.5709C46.8431 12.7029 46.7605 12.8182 46.6489 12.9001C46.5373 12.982 46.4026 13.0262 46.2641 13.0263Z" fill="#FFE1AB"/>
<path d="M27.6932 43.1406C27.0935 43.1406 26.5096 42.833 26.1821 42.2795C23.9367 38.483 24.0315 34.3769 24.4683 30.5051C24.5769 29.5428 25.4451 28.8508 26.4075 28.9592C27.3698 29.0677 28.062 29.936 27.9534 30.8984C27.585 34.1638 27.4811 37.5863 29.201 40.4941C29.694 41.3277 29.4179 42.4031 28.5843 42.8961C28.3146 43.0562 28.0068 43.1406 27.6932 43.1406Z" fill="#7ED2EC"/>
</g>
<path fill-rule="evenodd" clip-rule="evenodd" d="M36 0C55.5764 0 71.4461 16.1177 71.4461 36C71.4461 55.8823 55.5764 72 36 72C16.4236 72 0.553833 55.8823 0.553833 36C0.553833 29.3192 2.34566 23.0635 5.46785 17.7014C6.18062 16.4773 7.85197 16.3322 8.84579 17.3416C9.58923 18.0966 9.69901 19.2633 9.17232 20.1828C6.50963 24.8311 4.9846 30.2347 4.9846 36C4.9846 53.397 18.8707 67.5 36 67.5C53.1293 67.5 67.0154 53.397 67.0154 36C67.0154 18.603 53.1293 4.5 36 4.5C29.8909 4.5 24.1943 6.29387 19.393 9.39126C18.4477 10.0011 17.1936 9.90997 16.4043 9.10835C15.4522 8.14136 15.5585 6.55383 16.6906 5.80553C22.2459 2.13348 28.8776 0 36 0Z" fill="#EB5E8E"/>
<defs>
<clipPath id="clip0">
<rect width="48" height="48" fill="white" transform="translate(12 11.5538)"/>
</clipPath>
</defs>
</svg>
