<svg width="256" height="292" viewBox="0 0 256 292" fill="none" xmlns="http://www.w3.org/2000/svg">
<circle cx="126" cy="177" r="115" fill="#FCE38A"/>
<path d="M219.88 138.22C219.42 138.44 218.96 138.72 218.5 139C218.48 136.08 216.94 134.66 215.86 133.12C210.66 125.68 200.62 128.5 197.66 135.34C197.26 136.28 203.78 144.78 203.5 145.7C199.18 147.64 195.02 152.1 194.18 156C195.04 151.98 192.04 150.1 187.5 151.6C182.96 153.1 178.66 157.42 178.04 161.42C178.68 157.42 175.44 155.24 170.8 156.36C166.16 157.48 162.02 161.46 161.6 165.44C162.02 161.46 158.54 158.96 153.86 159.66C149.18 160.36 145.18 164 144.98 167.96C145.16 163.98 141.48 161.16 136.76 161.42C132.04 161.68 128.22 164.96 128.26 168.94C128.22 164.98 124.34 161.78 119.62 161.62C114.9 161.46 111.26 164.36 111.52 168.34C111.26 164.36 107.18 160.82 102.5 160.22C97.7999 159.62 94.3799 162.18 94.8599 166.16C94.3799 162.18 90.1399 158.28 85.4999 157.26C80.8599 156.24 77.6599 158.48 78.3599 162.48C77.6599 158.5 73.2799 154.26 68.6999 152.84C64.1199 151.44 61.1599 153.38 62.0999 157.38C61.1799 153.38 51.0799 136.48 49.9799 133.98C47.0199 127.14 41.3199 124.98 36.4399 129.42C34.4399 131.24 33.1999 134.54 34.2199 139.4C31.0399 138.52 29.4599 140.06 30.6199 143.44C36.9599 161.96 43.2199 180.8 48.4199 199.74C50.6399 207.84 52.9399 218.34 59.4599 224.38C64.1399 228.7 69.9799 231.7 75.5999 234.12C92.3799 241.32 111 243.52 128.34 243.64C146.9 243.76 170.5 239.28 186.92 229.94C193.14 226.42 199.06 222.32 201.84 215.42C206.42 203.98 209.74 191.98 213.24 180.5C217.22 167.46 220.22 153.62 225.38 141.44C226.66 137.44 224.22 136.06 219.88 138.22Z" fill="#48A2AD"/>
<path d="M127.72 190.8C177.437 190.8 217.74 174.602 217.74 154.62C217.74 134.638 177.437 118.44 127.72 118.44C78.0033 118.44 37.7 134.638 37.7 154.62C37.7 174.602 78.0033 190.8 127.72 190.8Z" fill="url(#paint0_radial)"/>
<path d="M204.16 102.96C202.48 101.26 200.42 99.66 197.96 98.26C197.96 98.26 140.6 116.92 100.68 114.9C60.7601 112.88 66.6401 108.52 46.3601 121.44C46.3601 121.44 40.8201 129.36 47.5801 134.18C56.4201 140.48 67.5801 145.68 79.8201 149.64C81.3001 148.56 82.7801 147.88 84.0401 147.88C122.1 134.66 196.14 151.42 204.16 102.96Z" fill="url(#paint1_linear)"/>
<path d="M204.16 102.96C196.14 151.42 122.1 134.66 84.0601 147.88C82.8001 147.88 81.3201 148.54 79.8401 149.64C110.54 159.56 148.1 161.58 173.18 153.24C204.68 142.8 218.9 117.9 204.16 102.96Z" fill="#EB5E8E"/>
<path d="M187.9 67.26C187.9 67.26 198.76 73.7 198.76 90.36C198.76 107.02 184.9 128.62 123.4 122.44C62.44 116.3 46.7 121.5 46.7 121.5C46.7 121.5 28.02 96.14 67.06 96.28C102 96.4 153.96 100.52 166.2 92.76C184.42 81.16 185.1 80.84 187.9 67.26Z" fill="url(#paint2_linear)"/>
<path d="M116.9 54.88C135.82 43.06 134.8 25.88 125.78 11.26C124.8 11.82 124.22 13 124.72 14.22C126.7 18.98 128.46 25.7 125.26 30.22C119.84 37.86 109.8 39.8 93.3799 48.96C77.7199 57.68 71.6999 66 70.5999 76.44C70.4999 77.42 71.0599 78.36 71.9799 78.82C73.7399 79.7 77.0999 81.14 82.1799 82.46C87.6999 68.8 104.32 61.16 116.9 54.88Z" fill="#F77CA5"/>
<path d="M158.18 32.9C149.72 23.78 139.72 16.34 128.14 11.14C127.3 10.76 126.44 10.88 125.76 11.26C134.78 25.86 135.8 43.04 116.88 54.88C104.32 61.16 87.6999 68.8 82.1599 82.46C87.6799 83.9 95.2399 85.2 105.08 85.5C129.2 86.22 161.7 84.9 167.22 75.44C172.76 66 168.14 43.64 158.18 32.9Z" fill="url(#paint3_linear)"/>
<path d="M186.2 64C186.66 62.84 187 61.64 187.24 60.44C180.76 50.52 165.6 47.48 165.6 47.48C182.04 82.48 96.4801 74.86 72.2401 76.3C61.9201 76.92 56.0001 81.46 52.5801 86.5C57.6401 83.86 63.5601 82.4 69.5001 80.42C107.78 71.3 169.78 109.6 186.2 64Z" fill="#F79EBC"/>
<path d="M189.64 65.92C189.168 63.9666 188.355 62.1117 187.24 60.44C187 61.66 186.66 62.84 186.2 64C169.78 109.6 107.78 71.3 69.4799 80.42C63.5599 82.4 57.6199 83.84 52.5599 86.5C47.9399 93.28 47.9199 100.92 47.9199 100.92C72.8599 93.36 91.2599 100.96 139.2 101.66C187.14 102.32 193.08 80.24 189.64 65.92Z" fill="url(#paint4_linear)"/>
<path d="M219.92 152.08C215.54 154.12 210.96 158.8 209.82 162.7C210.98 158.8 208.28 157.14 203.8 158.8C199.3 160.46 194.82 164.76 193.88 168.58C194.82 164.76 191.86 162.86 187.28 164.14C182.7 165.42 178.32 169.36 177.62 173.12C178.34 169.36 175.14 167.2 170.5 168.1C165.86 169 161.62 172.6 161.14 176.32C161.64 172.6 158.2 170.16 153.52 170.68C148.82 171.2 144.76 174.48 144.5 178.16C144.76 174.48 141.14 171.74 136.42 171.88C131.7 172.02 127.82 174.98 127.78 178.66C127.82 174.98 124 171.94 119.28 171.7C114.58 171.46 110.88 174.12 111.08 177.82C110.9 174.12 106.9 170.78 102.2 170.16C97.52 169.54 94.04 171.92 94.46 175.64C94.04 171.92 89.9 168.22 85.26 167.24C80.62 166.26 77.4 168.34 78.02 172.12C77.38 168.34 73.1 164.32 68.54 162.94C63.98 161.56 61 163.42 61.86 167.26C61 163.42 56.6 159.02 52.14 157.28C47.68 155.54 44.96 157.14 46.04 161.06C44.96 157.14 40.48 152.36 36.14 150.24C31.8 148.12 29.36 149.5 30.64 153.52C35.8 165.64 38.82 179.22 42.8 191.78C46.32 202.84 49.64 214.3 54.24 224.96C57.02 231.4 62.9 234.8 69.18 237.64C87.16 245.74 108.16 247.84 127.64 248.02C145.24 248.2 163.48 246.66 180.26 241.08C185.9 239.2 191.74 236.86 196.42 233.12C202.96 227.9 205.26 217.92 207.5 210.2C212.84 191.72 219.14 173.7 225.34 155.5C226.7 151.46 224.3 150.04 219.92 152.08Z" fill="url(#paint5_linear)"/>
<path d="M73.5 102.5C75.7091 102.5 77.5 100.709 77.5 98.5C77.5 96.2909 75.7091 94.5 73.5 94.5C71.2909 94.5 69.5 96.2909 69.5 98.5C69.5 100.709 71.2909 102.5 73.5 102.5Z" fill="#B8EB96"/>
<path d="M99.5 117C101.709 117 103.5 115.209 103.5 113C103.5 110.791 101.709 109 99.5 109C97.2909 109 95.5 110.791 95.5 113C95.5 115.209 97.2909 117 99.5 117Z" fill="#EBD3DB"/>
<path d="M74.5 132C76.7091 132 78.5 130.209 78.5 128C78.5 125.791 76.7091 124 74.5 124C72.2909 124 70.5 125.791 70.5 128C70.5 130.209 72.2909 132 74.5 132Z" fill="#EB5E8E"/>
<path d="M104 73C106.209 73 108 71.2091 108 69C108 66.7909 106.209 65 104 65C101.791 65 100 66.7909 100 69C100 71.2091 101.791 73 104 73Z" fill="#3DC2EB"/>
<path d="M125.5 100.5C127.709 100.5 129.5 98.7091 129.5 96.5C129.5 94.2909 127.709 92.5 125.5 92.5C123.291 92.5 121.5 94.2909 121.5 96.5C121.5 98.7091 123.291 100.5 125.5 100.5Z" fill="#FFA600"/>
<path d="M191 130.5C193.209 130.5 195 128.709 195 126.5C195 124.291 193.209 122.5 191 122.5C188.791 122.5 187 124.291 187 126.5C187 128.709 188.791 130.5 191 130.5Z" fill="#79EB2D"/>
<path d="M142 58.5C144.209 58.5 146 56.7091 146 54.5C146 52.2909 144.209 50.5 142 50.5C139.791 50.5 138 52.2909 138 54.5C138 56.7091 139.791 58.5 142 58.5Z" fill="#FFF000"/>
<path d="M163 105C165.209 105 167 103.209 167 101C167 98.7909 165.209 97 163 97C160.791 97 159 98.7909 159 101C159 103.209 160.791 105 163 105Z" fill="#8052FF"/>
<path d="M173 75C175.209 75 177 73.2091 177 71C177 68.7909 175.209 67 173 67C170.791 67 169 68.7909 169 71C169 73.2091 170.791 75 173 75Z" fill="#5EEBB3"/>
<path d="M144.5 135.5C146.709 135.5 148.5 133.709 148.5 131.5C148.5 129.291 146.709 127.5 144.5 127.5C142.291 127.5 140.5 129.291 140.5 131.5C140.5 133.709 142.291 135.5 144.5 135.5Z" fill="#A45EEB"/>
<path opacity="0.56" d="M57 171L69 222.5" stroke="#49A5B0" stroke-width="0.375" stroke-miterlimit="10" stroke-linecap="round" stroke-linejoin="round"/>
<path opacity="0.56" d="M199 171.16L187 223" stroke="#49A5B0" stroke-width="0.375" stroke-miterlimit="10" stroke-linecap="round" stroke-linejoin="round"/>
<path opacity="0.56" d="M81.9199 179.16L88.9199 230.16" stroke="#49A5B0" stroke-width="0.375" stroke-miterlimit="10" stroke-linecap="round" stroke-linejoin="round"/>
<path opacity="0.56" d="M174.08 177.34L167.08 228.34" stroke="#49A5B0" stroke-width="0.375" stroke-miterlimit="10" stroke-linecap="round" stroke-linejoin="round"/>
<path opacity="0.56" d="M103.66 182L108.34 234.34" stroke="#49A5B0" stroke-width="0.375" stroke-miterlimit="10" stroke-linecap="round" stroke-linejoin="round"/>
<path opacity="0.56" d="M152.34 180.16L147.66 232.5" stroke="#49A5B0" stroke-width="0.375" stroke-miterlimit="10" stroke-linecap="round" stroke-linejoin="round"/>
<path opacity="0.56" d="M128.34 185.34L129 235.66" stroke="#49A5B0" stroke-width="0.375" stroke-miterlimit="10" stroke-linecap="round" stroke-linejoin="round"/>
<path opacity="0.2" d="M132.7 20.18C140.42 24.58 147.5 30.2 153.78 37C156.54 39.98 159.08 44.48 160.88 49.68C161.54 51.6 163.14 53.04 165.1 53.52C167.18 54.04 177.8 56.96 182.22 63.72C182.98 64.9 183.5 66.08 183.8 67.32C183.98 68.1 184.14 68.96 184.26 69.84C184.44 71.24 185.12 72.54 186.16 73.5C188.62 75.76 192.76 80.96 192.78 90.36C192.78 92.56 192.48 94.68 191.88 96.68C191.26 98.82 191.84 101.12 193.44 102.66C194.22 103.42 195.16 103.94 196.18 104.2C197.58 105.1 198.84 106.1 199.9 107.2C206.16 113.54 204.14 120.86 201.34 125.9C200.24 127.86 200.34 130.28 201.6 132.14C202.72 133.82 204.6 134.8 206.58 134.8C206.8 134.8 207.04 134.78 207.28 134.76C207.44 134.74 207.62 134.74 207.78 134.74C209.06 134.74 210.1 135.34 210.96 136.56C211.2 136.9 211.44 137.22 211.7 137.56C212.52 138.64 212.52 138.72 212.54 139.08C212.56 141.24 213.76 143.24 215.66 144.28C216.28 144.62 216.94 144.84 217.62 144.94C217.1 146.4 216.56 147.94 216.02 149.56C215.32 151.66 215.84 153.98 217.38 155.58C217.76 155.98 218.18 156.32 218.64 156.6L217.28 160.58C211.96 176.18 206.44 192.3 201.74 208.52C201.52 209.24 201.32 210 201.1 210.76C199.22 217.38 197.1 224.9 192.68 228.42C188.54 231.72 183.12 233.78 178.38 235.36C164.92 239.84 149.2 242 130.32 242C129.46 242 128.58 242 127.72 241.98C103.86 241.74 86.04 238.6 71.66 232.12C65.88 229.52 61.6399 226.88 59.7599 222.54C56.0599 214 53.1599 204.7 50.3399 195.68C49.7399 193.76 49.1399 191.82 48.5199 189.92C47.2199 185.84 45.9999 181.52 44.7999 177.36C42.5199 169.36 40.1799 161.12 37.0399 153.3C37.2199 153.12 37.3799 152.92 37.5199 152.7C38.6399 151.14 38.9199 149.12 38.2999 147.3L37.5199 145.02C37.4599 144.86 37.4199 144.7 37.3599 144.54C37.7199 144.32 38.0599 144.06 38.3599 143.78C39.1069 143.07 39.6606 142.182 39.9685 141.198C40.2765 140.215 40.3286 139.169 40.1199 138.16C39.6399 135.88 39.9599 134.36 40.5199 133.86C41.1199 133.32 41.5799 133.12 41.7999 133.12C41.8199 133.12 41.8999 133.12 42.0199 133.18C42.9107 133.543 43.8761 133.686 44.8338 133.595C45.7915 133.505 46.7131 133.184 47.5199 132.66C49.1599 131.6 50.1799 129.82 50.2599 127.86C50.2999 126.96 50.7199 125.96 51.0399 125.34C51.7599 124.54 52.2599 123.56 52.4799 122.48C52.7999 120.88 52.4599 119.2 51.4999 117.86C49.8799 115.54 47.6999 111.04 48.3599 108.06C48.5399 107.22 48.9999 106.12 50.9599 105C52.6799 104.02 53.7999 102.26 53.9599 100.28C54.0999 98.5 54.7399 93.92 57.5199 89.84C60.4199 85.58 65.0399 83.08 71.2199 82.42C72.6043 82.2773 73.8954 81.6556 74.8704 80.6624C75.8453 79.6692 76.4429 78.3668 76.5599 76.98V76.86C77.2999 70.36 80.2799 63.1 96.2799 54.18C101.84 51.08 106.64 48.84 110.88 46.86C119.16 43 125.7 39.94 130.14 33.68C132.7 30.1 133.54 25.52 132.7 20.18ZM127.08 10.9C126.6 10.9 126.16 11.04 125.76 11.26C124.78 11.82 124.2 13 124.7 14.22C126.68 18.98 128.44 25.7 125.24 30.22C119.82 37.86 109.78 39.8 93.3599 48.96C77.7199 57.68 71.6999 66 70.5999 76.44V76.48C61.2999 77.46 55.7999 81.74 52.5599 86.5C48.9999 91.74 48.1799 97.48 47.9799 99.82C36.5799 106.36 45.5199 119.8 46.5799 121.32C46.4999 121.36 46.4399 121.42 46.3599 121.46C46.3599 121.46 44.3799 124.3 44.2399 127.62C43.4399 127.3 42.6199 127.14 41.7799 127.14C39.9999 127.14 38.1799 127.88 36.4599 129.46C34.4599 131.28 33.2199 134.58 34.2399 139.44C33.6399 139.28 33.1199 139.2 32.6399 139.2C30.5599 139.2 29.6999 140.72 30.6399 143.48C31.2999 145.4 31.9399 147.34 32.5999 149.26C30.5999 149.28 29.7399 150.76 30.5999 153.5C35.7599 165.62 38.7799 179.2 42.7599 191.76C46.2799 202.82 49.5999 214.28 54.1999 224.94C56.9799 231.38 62.8599 234.78 69.1399 237.62C87.1199 245.72 108.12 247.82 127.6 248C128.48 248 129.38 248.02 130.26 248.02C147.02 248.02 164.28 246.36 180.22 241.08C185.86 239.2 191.7 236.86 196.38 233.12C202.92 227.9 205.22 217.92 207.46 210.2C212.8 191.72 219.1 173.7 225.3 155.5C226.24 152.74 225.36 151.2 223.28 151.2C222.8 151.2 222.26 151.28 221.66 151.44C222.78 148.04 223.98 144.72 225.34 141.5C226.22 138.74 225.36 137.22 223.34 137.22C222.4 137.22 221.22 137.54 219.86 138.22C219.4 138.44 218.94 138.72 218.48 139C218.46 136.08 216.92 134.66 215.84 133.12C213.68 130.04 210.7 128.74 207.74 128.74C207.34 128.74 206.94 128.76 206.54 128.8C211.6 119.7 211.24 110.18 204.14 102.98C202.46 101.28 200.4 99.68 197.94 98.28L197.6 98.38C198.4 95.66 198.74 92.96 198.74 90.36C198.74 78.64 193.36 72 190.18 69.08C190.04 68 189.86 66.94 189.6 65.92C189.128 63.9667 188.315 62.1117 187.2 60.44C181.68 52 169.9 48.54 166.52 47.7C164.54 42.04 161.7 36.74 158.16 32.92C149.7 23.8 139.7 16.36 128.12 11.16C127.8 10.98 127.44 10.9 127.08 10.9Z" fill="#424242"/>
<defs>
<radialGradient id="paint0_radial" cx="0" cy="0" r="1" gradientUnits="userSpaceOnUse" gradientTransform="translate(127.334 135.334) rotate(90) scale(53.37 83.5668)">
<stop stop-color="#BE5D23"/>
<stop offset="0.158" stop-color="#B65B25"/>
<stop offset="0.407" stop-color="#9F552A"/>
<stop offset="0.715" stop-color="#7A4C33"/>
<stop offset="0.999" stop-color="#52423C"/>
</radialGradient>
<linearGradient id="paint1_linear" x1="44.2281" y1="123.958" x2="204.16" y2="123.958" gradientUnits="userSpaceOnUse">
<stop stop-color="#FF85AE"/>
<stop offset="0.317" stop-color="#FF7DA9"/>
<stop offset="0.816" stop-color="#FF669A"/>
<stop offset="1" stop-color="#FF5C93"/>
</linearGradient>
<linearGradient id="paint2_linear" x1="42.234" y1="95.382" x2="198.768" y2="95.382" gradientUnits="userSpaceOnUse">
<stop offset="0.003" stop-color="#FFB0CB"/>
<stop offset="0.792" stop-color="#F383A9"/>
<stop offset="1" stop-color="#F0769F"/>
</linearGradient>
<linearGradient id="paint3_linear" x1="110.172" y1="48.28" x2="174.024" y2="48.28" gradientUnits="userSpaceOnUse">
<stop stop-color="#F697B7"/>
<stop offset="0.335" stop-color="#F78FB2"/>
<stop offset="0.862" stop-color="#F878A3"/>
<stop offset="1" stop-color="#F9719F"/>
</linearGradient>
<linearGradient id="paint4_linear" x1="47.9219" y1="81.044" x2="190.444" y2="81.044" gradientUnits="userSpaceOnUse">
<stop stop-color="#F78FB2"/>
<stop offset="0.272" stop-color="#F887AD"/>
<stop offset="0.703" stop-color="#FC709F"/>
<stop offset="1" stop-color="#FF5C93"/>
</linearGradient>
<linearGradient id="paint5_linear" x1="128" y1="166" x2="128" y2="239.24" gradientUnits="userSpaceOnUse">
<stop stop-color="#4FE8FF"/>
<stop offset="0.497" stop-color="#4BDDF3"/>
<stop offset="1" stop-color="#45CEE3"/>
</linearGradient>
</defs>
</svg>
