<svg width="72" height="73" viewBox="0 0 72 73" fill="none" xmlns="http://www.w3.org/2000/svg">
<ellipse cx="34" cy="35.5846" rx="34" ry="33.4769" fill="white"/>
<path d="M47.475 55.8031H24.525C24.525 55.8031 24.8625 57.9631 27.9 59.7908C28.9968 60.4554 31.6968 61.3693 36 61.3693C40.3031 61.3693 43.0031 60.4554 44.1 59.7908C47.2218 58.0462 47.475 55.8031 47.475 55.8031Z" fill="#D2D8D9"/>
<path d="M57.0938 36.197H14.9062C14.9062 36.197 15.4969 45.4186 21.0656 52.8955C23.175 55.637 28.0688 59.6247 36 59.6247C43.8469 59.6247 48.825 55.637 50.9344 52.8955C56.5031 45.4186 57.0938 36.197 57.0938 36.197Z" fill="#EFF6F7"/>
<path d="M36 44.2555C47.6498 44.2555 57.0938 40.6476 57.0938 36.197C57.0938 31.7464 47.6498 28.1385 36 28.1385C24.3502 28.1385 14.9062 31.7464 14.9062 36.197C14.9062 40.6476 24.3502 44.2555 36 44.2555Z" fill="#EFF6F7"/>
<path d="M36 32.2924C44.9438 32.2924 52.4531 34.5355 54.1406 37.6093C54.3937 37.1939 54.5625 36.6955 54.5625 36.2801C54.5625 32.6247 46.2938 29.6339 36 29.6339C25.7063 29.6339 17.4375 32.6247 17.4375 36.2801C17.4375 36.7785 17.6062 37.1939 17.8594 37.6093C19.5469 34.5355 27.0562 32.2924 36 32.2924Z" fill="#D2D8D9"/>
<path d="M36 42.8431C44.9438 42.8431 52.4531 40.6001 54.1406 37.5262C52.4531 34.5354 44.9438 32.2924 36 32.2924C27.0562 32.2924 19.5469 34.5354 17.8594 37.6093C19.5469 40.6001 27.0562 42.8431 36 42.8431Z" fill="#3DC2EB"/>
<path d="M30.5156 53.0616L26.8875 48.3262L21.7406 51.2339L20.5594 56.6339L29.4188 58.3785L30.5156 53.0616Z" fill="#FFA600"/>
<path d="M29.8406 53.4769L26.8875 48.3262L21.3187 50.4862L19.4625 55.5539L27.9 58.6277L29.8406 53.4769Z" fill="#EB5E8E"/>
<path d="M26.2125 51.317C26.7717 51.317 27.225 50.8706 27.225 50.32C27.225 49.7695 26.7717 49.3231 26.2125 49.3231C25.6533 49.3231 25.2 49.7695 25.2 50.32C25.2 50.8706 25.6533 51.317 26.2125 51.317Z" fill="#FFA600"/>
<path d="M25.7906 41.5969H26.6343V49.9046H25.7906V41.5969Z" fill="#B59267"/>
<g opacity="0.6">
<path opacity="0.6" d="M37.0968 19.3323C33.975 16.1754 36.0843 11.5231 36.0843 11.5231C36.0843 11.5231 29.5031 17.6708 33.6375 21.9077C38.4468 26.8092 36.0843 29.8 36.0843 29.8C36.0843 29.8 41.9906 24.3169 37.0968 19.3323Z" fill="#A6AEB0"/>
<path opacity="0.6" d="M27.8156 22.1569C25.4531 19.9138 27.0562 16.5077 27.0562 16.5077C27.0562 16.5077 22.1624 20.9938 25.2843 24.0677C28.8281 27.64 27.0562 29.8 27.0562 29.8C27.0562 29.8 31.4437 25.8123 27.8156 22.1569Z" fill="#A6AEB0"/>
<path opacity="0.6" d="M46.3781 22.1569C44.0156 19.9138 45.6187 16.5077 45.6187 16.5077C45.6187 16.5077 40.7249 20.9938 43.8468 24.0677C47.3906 27.64 45.6187 29.8 45.6187 29.8C45.6187 29.8 50.0062 25.8123 46.3781 22.1569Z" fill="#A6AEB0"/>
</g>
<path fill-rule="evenodd" clip-rule="evenodd" d="M36 0.446167C55.5764 0.446167 71.4461 16.5639 71.4461 36.4462C71.4461 56.3284 55.5764 72.4462 36 72.4462C16.4236 72.4462 0.553833 56.3284 0.553833 36.4462C0.553833 29.7654 2.34566 23.5096 5.46785 18.1476C6.18062 16.9235 7.85197 16.7784 8.84579 17.7878C9.58923 18.5428 9.69901 19.7095 9.17232 20.6289C6.50963 25.2773 4.9846 30.6809 4.9846 36.4462C4.9846 53.8431 18.8707 67.9462 36 67.9462C53.1293 67.9462 67.0154 53.8431 67.0154 36.4462C67.0154 19.0492 53.1293 4.94617 36 4.94617C29.8909 4.94617 24.1943 6.74004 19.393 9.83743C18.4477 10.4473 17.1936 10.3561 16.4043 9.55451C15.4522 8.58753 15.5585 7 16.6906 6.25169C22.2459 2.57965 28.8776 0.446167 36 0.446167Z" fill="#EB5E8E"/>
</svg>
